# xmcd
#
# Track frame offsets: 
#        150
#        11340
#        24182
#        38277
#        52432
#        66295
#        78875
#        91415
#        102727
#        114057
#        127592
#        139300
#        152325
#        163012
#        175762
#        189070
#        200487
#        213912
#        227130
#        239062
#        252780
#        265147
#
# Disc length: 3678 seconds
#
# Revision: 1
# Processed by: cddbd v1.5.2PL0 Copyright (c) Steve Scherf et al.
# Submitted via: ExactAudioCopy v1.1
#
DISCID=160e5c16
DTITLE=Various Artist - The Jive is Jumpin': RCA and Bluebird Vocal Gro
DTITLE=ups 1939-1952 (Westside)
DYEAR=1998
DGENRE=R&B
TTITLE0=The Four Clefs - The Jive Is Jumpin' (mono)
TTITLE1=The Four Clefs - I Like Pie, I Like Cake (mono)
TTITLE2=The Four Clefs - V-Day Stomp (mono)
TTITLE3=The Four Clefs - When I'm Low, I Get High (mono)
TTITLE4=The Cats and The Fiddle - Gang Busters (mono)
TTITLE5=The Cats and The Fiddle - I Miss You So (mono)
TTITLE6=The Cats and The Fiddle - I'd Rather Drink Muddy Water (mono)
TTITLE7=The Cats and The Fiddle - Nuts To You (mono)
TTITLE8=The Cats and The Fiddle - That's On, Jack, That's On (mono)
TTITLE9=The Lewis Bronzeville Five - Low Down Gal Blues (mono)
TTITLE10=The Lewis Bronzeville Five - Natchez Mississippi Blues (mono)
TTITLE11=The Four Vagabonds - Comin' In On A Wing And A Prayer (mono)
TTITLE12=The Four Vagabonds - Rosie The Riveter (mono)
TTITLE13=The Aristo-Kats - Jack, You're Dead (mono)
TTITLE14=The Aristo-Kats - Watch Yourself Baby (mono)
TTITLE15=The Deep River Boys - That Chick's Too Young To Fry (mono)
TTITLE16=Bill Johnson and His Musical Notes - Elevator Boogie (mono)
TTITLE17=Bill Johnson and His Musical Notes - Shorty's Got To Go (mono)
TTITLE18=The Delta Rhythm Boys - One O'Clock Jump (mono)
TTITLE19=The Delta Rhythm Boys - Take The 'A' Train (mono)
TTITLE20=The Delta Rhythm Boys - I'll Never Get Out Of This World Aliv
TTITLE20=e (mono)
TTITLE21=Steve Gibson and The Red Caps - Boogie Woogie On A Saturday Nig
TTITLE21=ht (mono)
EXTD=
EXTT0=
EXTT1=
EXTT2=
EXTT3=
EXTT4=
EXTT5=
EXTT6=
EXTT7=
EXTT8=
EXTT9=
EXTT10=
EXTT11=
EXTT12=
EXTT13=
EXTT14=
EXTT15=
EXTT16=
EXTT17=
EXTT18=
EXTT19=
EXTT20=
EXTT21=
PLAYORDER=
